<svg width="124" height="156" viewBox="0 0 124 156" fill="none" xmlns="http://www.w3.org/2000/svg">
<ellipse cx="59.5" cy="135" rx="59.5" ry="21" fill="#414141"/>
<path d="M4.21284 85.8918L56.5522 59.1606L122.508 92.2747L69.1764 118.635L4.21284 85.8918Z" fill="#D2D2D2"/>
<path d="M14.141 84.9232L60.5945 61.1981L118.75 90.5096L95.5229 102.372L83.9095 108.303L79.53 110.571L72.0834 110.571L65.0267 110.571L57.7573 106.907L43.2185 99.5789L14.141 84.9232Z" fill="#808080"/>
<path d="M12.0848 14.9655L27.3685 7.15967L82.9344 35.1841L67.6508 42.9899L12.0848 14.9655Z" fill="#C0C0C0"/>
<path d="M4.10645 85.9982L69.1051 118.976V142.167L4.10645 109.189V85.9982Z" fill="#C0C0C0"/>
<path d="M11.9785 15.1128L67.4029 43.2332V103.693L11.9785 75.5729V15.1128Z" fill="#C0C0C0"/>
<path d="M20.5952 30.7866L59.4242 50.3317V86.6365L20.5952 67.0914V30.7866Z" fill="#0000B2"/>
<path d="M122.508 92.2747L69.1052 118.657V141.848L122.615 115.072L122.508 92.2747Z" fill="#808080"/>
<path d="M83.041 35.1482L67.2967 43.0284L67.5094 103.732L83.041 95.8515V35.1482Z" fill="#808080"/>
<path d="M81.5517 0.999996L33.9995 10.3615L83.041 34.9355L115.7 17.7018L81.5517 0.999996Z" fill="#C0C0C0"/>
<path d="M116.551 49.0841L83.6794 81.9558H83.2539V35.4674L116.019 18.1273L116.551 49.0841Z" fill="#808080"/>
<path d="M113.359 52.8074L83.3599 82.4877V88.445L113.359 73.7645V52.8074Z" fill="#808080"/>
<path d="M59.4242 50.2543V86.6365L20.5952 67.0625" stroke="white" stroke-width="1.88797"/>
<path d="M4.10645 109.402V85.8918L17.7232 78.9771" stroke="white" stroke-width="1.88797"/>
<path d="M4.21289 85.9982L69.2115 118.764" stroke="white" stroke-width="1.88797"/>
<path d="M63.7861 125.678L50.9141 119.19" stroke="white" stroke-width="1.88797"/>
<path d="M63.7861 124.72L50.9141 118.232" stroke="#808080" stroke-width="1.88797"/>
<path d="M11.9785 75.9984V15.0423M11.9785 15.0423L67.5093 43.1268M11.9785 15.0423L27.2973 7.17008L33.893 10.4742M82.9345 35.0418L33.893 10.4742M33.893 10.4742L81.5515 0.999996L115.7 17.7018" stroke="white" stroke-width="1.88797"/>
<path d="M11.8722 75.5729L67.5093 103.764L83.1473 95.6789V88.5514M83.1473 82.5941V35.2546L115.806 17.9145L116.444 49.0841L113.253 52.2959M83.1473 82.5941L113.253 52.2959M83.1473 82.5941V88.5514M113.253 52.2959V73.7644L99.3172 80.6093M83.1473 88.5514L99.3172 80.6093M99.3172 80.6093L122.402 92.2747V115.04L69.2114 141.955L4 109.189" stroke="black" stroke-width="1.88797"/>
<circle cx="10.0637" cy="98.0193" r="1.27657" fill="#808080"/>
<circle cx="9.85079" cy="97.5937" r="1.27657" fill="#00F720"/>
<circle cx="54.7434" cy="90.9982" r="1.27657" fill="#808080"/>
<circle cx="54.531" cy="90.5726" r="1.27657" fill="#00F720"/>
</svg>
